<?xml version="1.0" encoding="UTF-8" standalone="no"?>
<!-- Created with Inkscape (http://www.inkscape.org/) -->

<svg
    height="192"
    id="svg2"
    version="1.1"
    viewBox="0 0 192 192"
    width="192"
    xmlns="http://www.w3.org/2000/svg"
    xmlns:cc="http://creativecommons.org/ns#"
    xmlns:dc="http://purl.org/dc/elements/1.1/"
    xmlns:inkscape="http://www.inkscape.org/namespaces/inkscape"
    xmlns:osb="http://www.openswatchbook.org/uri/2009/osb"
    xmlns:rdf="http://www.w3.org/1999/02/22-rdf-syntax-ns#"
    xmlns:sodipodi="http://sodipodi.sourceforge.net/DTD/sodipodi-0.dtd"
    xmlns:xlink="http://www.w3.org/1999/xlink"
    inkscape:export-filename="/media/Disk/Dropbox/TNDesigns/graphic/android/icons/android-terminal-emulator/android-terminal-emulator-36.png"
    inkscape:export-xdpi="16.879999"
    inkscape:export-ydpi="16.879999"
    inkscape:version="0.91 r13725"
    sodipodi:docname="android-terminal-emulator-material.svg">
  <defs
      id="defs4">
    <linearGradient
        id="linearGradient4675"
        inkscape:collect="always">
      <stop
          style="stop-color:#ffffff;stop-opacity:0.1"
          id="stop4677"
          offset="0"/>
      <stop
          style="stop-color:#ffffff;stop-opacity:0"
          id="stop4679"
          offset="1"/>
    </linearGradient>
    <linearGradient
        id="linearGradient6127"
        osb:paint="solid">
      <stop
          style="stop-color:#607d8b;stop-opacity:0.16403785;"
          id="stop6129"
          offset="0"/>
    </linearGradient>
    <linearGradient
        id="linearGradient9937"
        inkscape:collect="always">
      <stop
          style="stop-color:#eceff1;stop-opacity:1;"
          id="stop9939"
          offset="0"/>
      <stop
          style="stop-color:#cfd8dc;stop-opacity:1"
          id="stop9941"
          offset="1"/>
    </linearGradient>
    <linearGradient
        gradientUnits="userSpaceOnUse"
        id="linearGradient9943"
        x1="96"
        x2="96"
        y1="4"
        y2="184"
        inkscape:collect="always"
        xlink:href="#linearGradient9937"/>
    <radialGradient
        cx="7.9580786e-13"
        cy="96"
        fx="7.9580786e-13"
        fy="96"
        gradientTransform="matrix(0,2,-2,0,192,0)"
        gradientUnits="userSpaceOnUse"
        id="radialGradient4681"
        r="96"
        inkscape:collect="always"
        xlink:href="#linearGradient4675"/>
    <filter
        style="color-interpolation-filters:sRGB;"
        id="filter3770"
        inkscape:label="Drop Shadow">
      <feFlood
          flood-color="rgb(0,0,0)"
          flood-opacity="0.470588"
          id="feFlood3772"
          result="flood"/>
      <feComposite
          id="feComposite3774"
          in="flood"
          in2="SourceGraphic"
          operator="out"
          result="composite1"/>
      <feGaussianBlur
          id="feGaussianBlur3776"
          in="composite1"
          result="blur"
          stdDeviation="2"/>
      <feOffset
          dx="0"
          dy="0"
          id="feOffset3778"
          result="offset"/>
      <feComposite
          id="feComposite3780"
          in="offset"
          in2="SourceGraphic"
          operator="atop"
          result="composite2"/>
    </filter>
    <filter
        style="color-interpolation-filters:sRGB;"
        id="filter4884"
        inkscape:label="Drop Shadow">
      <feFlood
          flood-color="rgb(0,0,0)"
          flood-opacity="0.352941"
          id="feFlood4886"
          result="flood"/>
      <feComposite
          id="feComposite4888"
          in="flood"
          in2="SourceGraphic"
          operator="in"
          result="composite1"/>
      <feGaussianBlur
          id="feGaussianBlur4890"
          in="composite1"
          result="blur"
          stdDeviation="4"/>
      <feOffset
          dx="0"
          dy="0"
          id="feOffset4892"
          result="offset"/>
      <feComposite
          id="feComposite4894"
          in="offset"
          in2="SourceGraphic"
          operator="out"
          result="composite2"/>
    </filter>
    <filter
        style="color-interpolation-filters:sRGB;"
        id="filter4985"
        inkscape:label="Drop Shadow">
      <feFlood
          flood-color="rgb(0,0,0)"
          flood-opacity="0.352941"
          id="feFlood4987"
          result="flood"/>
      <feComposite
          id="feComposite4989"
          in="flood"
          in2="SourceGraphic"
          operator="in"
          result="composite1"/>
      <feGaussianBlur
          id="feGaussianBlur4991"
          in="composite1"
          result="blur"
          stdDeviation="2"/>
      <feOffset
          dx="0"
          dy="0"
          id="feOffset4993"
          result="offset"/>
      <feComposite
          id="feComposite4995"
          in="offset"
          in2="SourceGraphic"
          operator="out"
          result="composite2"/>
    </filter>
    <filter
        style="color-interpolation-filters:sRGB;"
        id="filter5048"
        inkscape:label="Drop Shadow">
      <feFlood
          flood-color="rgb(0,0,0)"
          flood-opacity="0.352941"
          id="feFlood5050"
          result="flood"/>
      <feComposite
          id="feComposite5052"
          in="flood"
          in2="SourceGraphic"
          operator="in"
          result="composite1"/>
      <feGaussianBlur
          id="feGaussianBlur5054"
          in="composite1"
          result="blur"
          stdDeviation="2"/>
      <feOffset
          dx="0"
          dy="0"
          id="feOffset5056"
          result="offset"/>
      <feComposite
          id="feComposite5058"
          in="offset"
          in2="SourceGraphic"
          operator="out"
          result="composite2"/>
    </filter>
  </defs>
  <sodipodi:namedview
      bordercolor="#666666"
      borderlayer="true"
      borderopacity="1.0"
      id="base"
      pagecolor="#ffffff"
      showborder="true"
      showgrid="false"
      showguides="true"
      units="px"
      inkscape:bbox-nodes="true"
      inkscape:bbox-paths="true"
      inkscape:current-layer="layer2"
      inkscape:cx="63.864407"
      inkscape:cy="96"
      inkscape:document-units="px"
      inkscape:guide-bbox="true"
      inkscape:object-nodes="true"
      inkscape:object-paths="true"
      inkscape:pageopacity="0.0"
      inkscape:pageshadow="2"
      inkscape:showpageshadow="false"
      inkscape:snap-bbox="true"
      inkscape:snap-bbox-edge-midpoints="true"
      inkscape:snap-bbox-midpoints="true"
      inkscape:snap-center="true"
      inkscape:snap-intersection-paths="true"
      inkscape:snap-midpoints="true"
      inkscape:snap-object-midpoints="true"
      inkscape:snap-smooth-nodes="true"
      inkscape:window-height="1404"
      inkscape:window-maximized="1"
      inkscape:window-width="2160"
      inkscape:window-x="0"
      inkscape:window-y="0"
      inkscape:zoom="6.1458333">
    <inkscape:grid
        empspacing="4"
        id="grid3336"
        type="xygrid"/>
    <sodipodi:guide
        id="guide3338"
        orientation="1,0"
        position="4,188"/>
    <sodipodi:guide
        id="guide3340"
        orientation="1,0"
        position="188,4"/>
    <sodipodi:guide
        id="guide3342"
        orientation="0,1"
        position="180,180"/>
    <sodipodi:guide
        id="guide3344"
        orientation="0,1"
        position="4,4"/>
    <sodipodi:guide
        id="guide3346"
        orientation="1,0"
        position="96,192"
        inkscape:color="rgb(0,0,255)"
        inkscape:label=""/>
    <sodipodi:guide
        id="guide3348"
        orientation="0,1"
        position="0,96"
        inkscape:color="rgb(0,0,255)"
        inkscape:label=""/>
    <sodipodi:guide
        id="guide3422"
        orientation="1,0"
        position="12,152"/>
    <sodipodi:guide
        id="guide3424"
        orientation="1,0"
        position="180,120"/>
    <sodipodi:guide
        id="guide3428"
        orientation="0,1"
        position="60,16"/>
    <sodipodi:guide
        id="guide3505"
        orientation="0,1"
        position="96,132"/>
  </sodipodi:namedview>
  <metadata
      id="metadata7">
    <rdf:RDF>
      <cc:Work
          rdf:about="">
        <dc:format>image/svg+xml</dc:format>
        <dc:type
            rdf:resource="http://purl.org/dc/dcmitype/StillImage"/>
        <dc:title/>
      </cc:Work>
    </rdf:RDF>
  </metadata>
  <g
      style="display:inline"
      id="layer1"
      transform="translate(0,-860.36216)"
      inkscape:groupmode="layer"
      inkscape:label="Guides"
      sodipodi:insensitive="true"/>
  <g
      style="display:inline"
      id="layer2"
      inkscape:groupmode="layer"
      inkscape:label="Base"
      sodipodi:insensitive="true">
    <rect
        style="fill:#90a4ae;fill-opacity:1;stroke:none;stroke-width:1.35000002;stroke-miterlimit:7;stroke-dasharray:none"
        height="184"
        id="rect3404"
        ry="16"
        width="184"
        x="4"
        y="4"/>
    <path
        style="fill:#607d8b;fill-opacity:1;stroke:none;stroke-width:1.35000002;stroke-miterlimit:7;stroke-dasharray:none"
        d="m 20,12 152,0 c 4.432,0 8,3.568 8,8 l 0,132 c 0,4.432 -3.568,8 -8,8 l -152,0 c -4.432,0 -8,-3.568 -8,-8 L 12,20 c 0,-4.432 3.568,-8 8,-8 z"
        id="rect3430"
        inkscape:connector-curvature="0"
        sodipodi:nodetypes="sssssssss"/>
    <g
        style="fill:#ffffff;fill-opacity:1"
        id="g9776">
      <path
          style="font-style:normal;font-variant:normal;font-weight:bold;font-stretch:normal;font-size:medium;line-height:125%;font-family:Sans;-inkscape-font-specification:'Sans Bold';letter-spacing:0px;word-spacing:0px;fill:#ffffff;fill-opacity:1;stroke:none;stroke-width:1px;stroke-linecap:butt;stroke-linejoin:miter;stroke-opacity:1"
          d="M 20,20 20,24.882812 40,32 20,39.117188 20,44 44,36 44,32 44,28 20,20 Z"
          id="path4259"
          inkscape:connector-curvature="0"/>
      <path
          style="fill:#ffffff;fill-opacity:1;fill-rule:evenodd;stroke:none;stroke-width:1px;stroke-linecap:butt;stroke-linejoin:miter;stroke-opacity:1"
          d="m 48,52 20,0 0,-4 -20,0 z"
          id="path4343"
          inkscape:connector-curvature="0"/>
    </g>
    <path
        style="fill:#a4c639"
        d="m 38.992188,60 c -1.056873,0.0078 -2.126268,0.271426 -3.115235,0.818359 -3.161808,1.753354 -4.305642,5.743219 -2.548828,8.908203 L 47.830078,95.884766 C 32.033549,104.8921 19.513548,118.24662 12,134.08398 L 12,152 c 0,1.108 0.223203,2.16139 0.626953,3.11914 0.40375,0.95775 0.987938,1.81997 1.710938,2.54297 0.723,0.723 1.585218,1.30719 2.542968,1.71094 C 17.838609,159.7768 18.892,160 20,160 l 152,0 c 1.108,0 2.16139,-0.2232 3.11914,-0.62695 0.95775,-0.40375 1.81997,-0.98794 2.54297,-1.71094 0.723,-0.723 1.30719,-1.58522 1.71094,-2.54297 C 179.7768,154.16139 180,153.108 180,152 l 0,-17.91211 c -7.51447,-15.83905 -20.0346,-29.19487 -35.82617,-38.203124 l 14.49414,-26.158204 c 1.76346,-3.164985 0.61887,-7.154849 -2.55274,-8.908203 -3.16497,-1.750188 -7.15363,-0.602484 -8.91015,2.5625 L 132.3457,90.191406 C 121.19488,85.752351 108.91008,83.28125 95.996094,83.28125 c -12.914287,0 -25.198492,2.471392 -36.34961,6.910156 L 44.789062,63.380859 C 43.581054,61.204933 41.317307,59.982811 38.992188,60 Z m 14.654296,62.60547 c 3.791924,0 6.865235,3.07331 6.865235,6.86523 -2.83e-4,3.79221 -3.073602,6.86719 -6.865235,6.86719 -3.791633,0 -6.867187,-3.07527 -6.867187,-6.86719 0,-3.79163 3.075264,-6.86523 6.867187,-6.86523 z m 84.703126,0 c 3.79194,0 6.86719,3.07331 6.86719,6.86523 0,3.79221 -3.07525,6.86719 -6.86719,6.86719 -3.79163,0 -6.86523,-3.07527 -6.86523,-6.86719 0,-3.79163 3.07332,-6.86523 6.86523,-6.86523 z"
        id="path2994"
        inkscape:connector-curvature="0"/>
    <path
        style="opacity:1;fill:#ffffff;fill-opacity:1;fill-rule:evenodd;stroke:none;stroke-width:1.10000002;stroke-miterlimit:7;stroke-dasharray:none;filter:url(#filter5048)"
        d="M 20,8 C 13.352,8 8,13.352 8,20 l 0,132 c 0,6.648 5.352,12 12,12 l 152,0 c 6.648,0 12,-5.352 12,-12 L 184,20 C 184,13.352 178.648,8 172,8 L 20,8 Z m 0,4 152,0 c 4.432,0 8,3.568 8,8 l 0,132 c 0,4.432 -3.568,8 -8,8 l -152,0 c -4.432,0 -8,-3.568 -8,-8 L 12,20 c 0,-4.432 3.568,-8 8,-8 z"
        id="rect5028"
        inkscape:connector-curvature="0"/>
    <path
        style="fill:url(#linearGradient9943);fill-opacity:1;stroke:none;stroke-width:1.35000002;stroke-miterlimit:7;stroke-dasharray:none"
        d="M 20,4 C 11.136,4 4,11.136 4,20 l 0,148 c 0,8.864 7.136,16 16,16 l 152,0 c 8.864,0 16,-7.136 16,-16 L 188,20 C 188,11.136 180.864,4 172,4 L 20,4 Z m 0,8 152,0 c 4.432,0 8,3.568 8,8 l 0,132 c 0,4.432 -3.568,8 -8,8 l -152,0 c -4.432,0 -8,-3.568 -8,-8 L 12,20 c 0,-4.432 3.568,-8 8,-8 z"
        id="rect3404-5"
        inkscape:connector-curvature="0"/>
  </g>
  <g
      style="display:inline"
      id="layer3"
      inkscape:groupmode="layer"
      inkscape:label="Finish"
      sodipodi:insensitive="true">
    <rect
        style="fill:url(#radialGradient4681);fill-opacity:1;fill-rule:evenodd;stroke:none;stroke-width:1.35000002;stroke-miterlimit:7;stroke-dasharray:none"
        height="192"
        id="rect4673"
        width="192"
        x="0"
        y="0"/>
  </g>
</svg>
